# xmcd
#
# Track frame offsets: 
#        150
#        12801
#        28986
#        47857
#        63594
#        75780
#        88206
#        100429
#        122780
#        142612
#
# Disc length: 2154 seconds
#
# Revision: 0
# Processed by: cddbd v1.5.2PL0 Copyright (c) Steve Scherf et al.
# Submitted via: ExactAudioCopy v0.99pb5
#
DISCID=7c08680a
DTITLE=Bonnie Whitmore - Embers To Ashes
DYEAR=1900
DGENRE=Country
TTITLE0=Cotton Sheets
TTITLE1=Embers To Ashes
TTITLE2=Cowboy Lullaby
TTITLE3=Tin Man
TTITLE4=GTO
TTITLE5=Please Take The Words Back
TTITLE6=She Walks
TTITLE7=Cry On My Pillow
TTITLE8=You Gonna Miss Me
TTITLE9=Love Too Sweet
EXTD=
EXTT0=
EXTT1=
EXTT2=
EXTT3=
EXTT4=
EXTT5=
EXTT6=
EXTT7=
EXTT8=
EXTT9=
PLAYORDER=
